<svg width="32" height="32" viewBox="0 0 32 32" fill="none" xmlns="http://www.w3.org/2000/svg">
<path d="M23.9993 14.6668C23.9993 15.5602 23.9993 16.4402 23.9993 17.3335C25.5993 17.3335 27.6793 17.3335 29.3327 17.3335C29.3327 16.4402 29.3327 15.5602 29.3327 14.6668C27.6793 14.6668 25.5993 14.6668 23.9993 14.6668Z" fill="#56E3ED"/>
<path d="M21.3327 23.4802C22.6127 24.4268 24.2794 25.6802 25.5993 26.6668C26.1327 25.9602 26.666 25.2402 27.1993 24.5335C25.8793 23.5468 24.2127 22.2935 22.9327 21.3335C22.3994 22.0535 21.866 22.7735 21.3327 23.4802Z" fill="#56E3ED"/>
<path d="M27.1993 7.46683C26.666 6.76016 26.1327 6.04016 25.5993 5.3335C24.2794 6.32016 22.6127 7.5735 21.3327 8.5335C21.866 9.24016 22.3994 9.96016 22.9327 10.6668C24.2127 9.70683 25.8793 8.46683 27.1993 7.46683Z" fill="#56E3ED"/>
<path d="M5.33268 12.0002C3.86602 12.0002 2.66602 13.2002 2.66602 14.6668V17.3335C2.66602 18.8002 3.86602 20.0002 5.33268 20.0002H6.66602V25.3335H9.33268V20.0002H10.666L17.3327 24.0002V8.00016L10.666 12.0002H5.33268ZM12.0393 14.2802L14.666 12.7068V19.2935L12.0393 17.7202L11.3993 17.3335H5.33268V14.6668H11.3993L12.0393 14.2802Z" fill="#56E3ED"/>
<path d="M20.666 16.0002C20.666 14.2268 19.8927 12.6268 18.666 11.5335V20.4535C19.8927 19.3735 20.666 17.7735 20.666 16.0002Z" fill="#56E3ED"/>
</svg>
