<svg width="32" height="32" viewBox="0 0 32 32" fill="none" xmlns="http://www.w3.org/2000/svg">
<path d="M26.0014 10.0001L27.2547 7.25346L30.0014 6.00012L27.2547 4.74679L26.0014 2.00012L24.748 4.74679L22.0014 6.00012L24.748 7.25346L26.0014 10.0001Z" fill="#56E3ED"/>
<path d="M10.668 10.0001L11.9214 7.25346L14.668 6.00012L11.9214 4.74679L10.668 2.00012L9.41471 4.74679L6.66805 6.00012L9.41471 7.25346L10.668 10.0001Z" fill="#56E3ED"/>
<path d="M26.0014 17.3335L24.748 20.0801L22.0014 21.3335L24.748 22.5868L26.0014 25.3335L27.2547 22.5868L30.0014 21.3335L27.2547 20.0801L26.0014 17.3335Z" fill="#56E3ED"/>
<path d="M22.948 12.8268L19.1747 9.05346C18.908 8.80012 18.5747 8.66679 18.228 8.66679C17.8814 8.66679 17.548 8.80012 17.2814 9.05346L2.38805 23.9468C1.86805 24.4668 1.86805 25.3068 2.38805 25.8268L6.16138 29.6001C6.42805 29.8668 6.76138 30.0001 7.10805 30.0001C7.45471 30.0001 7.78805 29.8668 8.05471 29.6135L22.948 14.7201C23.468 14.2001 23.468 13.3468 22.948 12.8268ZM18.228 11.8935L20.108 13.7735L18.548 15.3335L16.668 13.4535L18.228 11.8935ZM7.10805 26.7868L5.22805 24.9068L14.788 15.3335L16.668 17.2135L7.10805 26.7868Z" fill="#56E3ED"/>
</svg>
