<svg width="43" height="42" viewBox="0 0 43 42" fill="none" xmlns="http://www.w3.org/2000/svg">
<circle cx="21.5" cy="21" r="21" fill="#56E3ED"/>
<path d="M30.5 14.18L19.09 25.6L14.85 21.36L16.26 19.95L19.09 22.78L29.09 12.78L30.5 14.18ZM20.5 29C16.09 29 12.5 25.41 12.5 21C12.5 16.59 16.09 13 20.5 13C22.07 13 23.54 13.46 24.78 14.25L26.23 12.8C24.6 11.67 22.63 11 20.5 11C14.98 11 10.5 15.48 10.5 21C10.5 26.52 14.98 31 20.5 31C22.23 31 23.86 30.56 25.28 29.78L23.78 28.28C22.78 28.74 21.67 29 20.5 29ZM27.5 24H24.5V26H27.5V29H29.5V26H32.5V24H29.5V21H27.5V24Z" fill="#222222"/>
</svg>
