<svg width="42" height="42" viewBox="0 0 42 42" fill="none" xmlns="http://www.w3.org/2000/svg">
<circle cx="21" cy="21" r="21" fill="#56E3ED"/>
<path d="M20.4541 26.74C17.2741 26.59 14.7441 23.97 14.7441 20.75C14.7441 17.44 17.4341 14.75 20.7441 14.75C23.9641 14.75 26.5841 17.28 26.7341 20.46L24.6341 19.83C24.2241 18.06 22.6341 16.75 20.7441 16.75C18.5341 16.75 16.7441 18.54 16.7441 20.75C16.7441 22.64 18.0541 24.23 19.8241 24.64L20.4541 26.74ZM30.7441 20.75C30.7441 21.05 30.7341 21.35 30.7041 21.65L28.7341 21.06C28.7441 20.96 28.7441 20.85 28.7441 20.75C28.7441 16.33 25.1641 12.75 20.7441 12.75C16.3241 12.75 12.7441 16.33 12.7441 20.75C12.7441 25.17 16.3241 28.75 20.7441 28.75C20.8441 28.75 20.9541 28.75 21.0541 28.74L21.6441 30.71C21.3441 30.74 21.0441 30.75 20.7441 30.75C15.2241 30.75 10.7441 26.27 10.7441 20.75C10.7441 15.23 15.2241 10.75 20.7441 10.75C26.2641 10.75 30.7441 15.23 30.7441 20.75ZM26.9741 25.01L30.7441 23.75L20.7441 20.75L23.7441 30.75L25.0041 26.98L29.2741 31.25L31.2541 29.27L26.9741 25.01Z" fill="#222222"/>
</svg>
