<svg width="21" height="20" viewBox="0 0 21 20" fill="none" xmlns="http://www.w3.org/2000/svg">
<path d="M14.666 5.20825V10.4249L16.3327 11.2583V5.20825C16.3327 4.29158 15.5827 3.54159 14.666 3.54159H11.3327C11.3327 2.39159 10.3993 1.45825 9.24935 1.45825C8.09935 1.45825 7.16602 2.39159 7.16602 3.54159H3.84102C2.92435 3.54159 2.17435 4.29158 2.17435 5.20825V8.37492C4.41602 8.37492 4.66602 10.1749 4.66602 10.6249C4.66602 11.0749 4.42435 12.8749 2.16602 12.8749V16.0416C2.16602 16.9583 2.91602 17.7083 3.83268 17.7083H6.99935C6.99935 15.9083 8.14102 15.3916 8.83268 15.2583V13.5666C7.64102 13.7083 6.20768 14.4333 5.60768 16.0416H3.83268V14.2666C5.64102 13.5999 6.33268 11.8749 6.33268 10.6249C6.33268 9.38325 5.64102 7.65825 3.84102 6.98325V5.20825H8.83268V3.54159C8.83268 3.30825 9.01602 3.12492 9.24935 3.12492C9.48268 3.12492 9.66602 3.30825 9.66602 3.54159V5.20825H14.666Z" fill="#56E3ED"/>
<path d="M10.4993 10.2083V13.5416L13.8327 14.3749L10.4993 15.2083V18.5416L18.8327 14.3749L10.4993 10.2083Z" fill="#56E3ED"/>
</svg>
