<svg width="21" height="20" viewBox="0 0 21 20" fill="none" xmlns="http://www.w3.org/2000/svg">
<path d="M9.38412 7.40842L10.1674 10.0001H12.5174L10.6258 11.3501L11.4008 13.8584L9.38412 12.3251L7.36745 13.8584L8.14245 11.3501L6.25078 10.0001H8.60078L9.38412 7.40842ZM7.36745 8.33342H1.05078L6.19245 12.0084L4.24245 18.3334L9.38412 14.4251L14.5341 18.3334L12.5758 12.0084L17.7174 8.33342H11.4008L9.38412 1.66675L7.36745 8.33342ZM18.0174 18.3334L16.4674 13.3251L19.9508 10.8334H17.0841L14.5174 12.6667L15.7341 16.6001L18.0174 18.3334ZM14.3841 6.66675L12.8674 1.66675L12.0008 4.54175L12.6424 6.66675H14.3841Z" fill="#56E3ED"/>
</svg>
