<svg width="43" height="42" viewBox="0 0 43 42" fill="none" xmlns="http://www.w3.org/2000/svg">
<circle cx="21.5" cy="21" r="21" fill="#56E3ED"/>
<path d="M15.5 23.9997C14.67 23.9997 13.92 24.3397 13.38 24.8797C12.2 26.0597 11.5 30.9997 11.5 30.9997C11.5 30.9997 16.44 30.2997 17.62 29.1197C18.16 28.5797 18.5 27.8297 18.5 26.9997C18.5 25.3397 17.16 23.9997 15.5 23.9997ZM16.21 27.7097C15.93 27.9897 14.04 28.4697 14.04 28.4697C14.04 28.4697 14.51 26.5897 14.8 26.2997C14.97 26.1097 15.22 25.9997 15.5 25.9997C16.05 25.9997 16.5 26.4497 16.5 26.9997C16.5 27.2797 16.39 27.5297 16.21 27.7097ZM26.92 22.6497C33.28 16.2897 31.16 11.3397 31.16 11.3397C31.16 11.3397 26.21 9.21969 19.85 15.5797L17.36 15.0797C16.71 14.9497 16.03 15.1597 15.55 15.6297L11.5 19.6897L16.5 21.8297L20.67 25.9997L22.81 30.9997L26.86 26.9497C27.33 26.4797 27.54 25.7997 27.41 25.1397L26.92 22.6497ZM16.91 19.8297L15 19.0097L16.97 17.0397L18.41 17.3297C17.84 18.1597 17.33 19.0297 16.91 19.8297ZM23.49 27.4997L22.67 25.5897C23.47 25.1697 24.34 24.6597 25.16 24.0897L25.45 25.5297L23.49 27.4997ZM25.5 21.2397C24.18 22.5597 22.12 23.6397 21.46 23.9697L18.53 21.0397C18.85 20.3897 19.93 18.3297 21.26 16.9997C25.94 12.3197 29.49 13.0097 29.49 13.0097C29.49 13.0097 30.18 16.5597 25.5 21.2397ZM24.5 19.9997C25.6 19.9997 26.5 19.0997 26.5 17.9997C26.5 16.8997 25.6 15.9997 24.5 15.9997C23.4 15.9997 22.5 16.8997 22.5 17.9997C22.5 19.0997 23.4 19.9997 24.5 19.9997Z" fill="#222222"/>
</svg>
