<svg width="20" height="28" viewBox="0 0 20 28" fill="none" xmlns="http://www.w3.org/2000/svg">
<path d="M16.666 8.66675H3.33268C1.86602 8.66675 0.666016 9.86675 0.666016 11.3334V24.6667C0.666016 26.1334 1.86602 27.3334 3.33268 27.3334H16.666C18.1327 27.3334 19.3327 26.1334 19.3327 24.6667V11.3334C19.3327 9.86675 18.1327 8.66675 16.666 8.66675ZM11.3327 25.3334H8.66602V23.3334H11.3327V25.3334ZM11.3327 22.0001H8.66602C8.66602 20.0001 5.33268 18.0001 5.33268 15.3334C5.33268 12.7601 7.42602 10.6667 9.99935 10.6667C12.5727 10.6667 14.666 12.7601 14.666 15.3334C14.666 18.0001 11.3327 20.0001 11.3327 22.0001ZM17.9993 6.66675H1.99935C1.99935 5.56008 2.89268 4.66675 3.99935 4.66675H15.9993C17.106 4.66675 17.9993 5.56008 17.9993 6.66675ZM16.666 2.66675H3.33268C3.33268 1.56008 4.22602 0.666748 5.33268 0.666748H14.666C15.7727 0.666748 16.666 1.56008 16.666 2.66675Z" fill="#56E3ED"/>
</svg>
