<svg width="471" height="472" viewBox="0 0 471 472" fill="none" xmlns="http://www.w3.org/2000/svg">
<g filter="url(#filter0_f_566_3154)">
<circle cx="235.5" cy="236.094" r="117.312" fill="#222222"/>
</g>
<circle cx="235.5" cy="220.094" r="117" stroke="white" stroke-opacity="0.08"/>
<path d="M277.47 194.916L282.73 183.389L294.256 178.13L282.73 172.87L277.47 161.344L272.211 172.87L260.685 178.13L272.211 183.389L277.47 194.916Z" fill="#56E3ED"/>
<path d="M213.125 194.916L218.385 183.389L229.911 178.13L218.385 172.87L213.125 161.344L207.866 172.87L196.34 178.13L207.866 183.389L213.125 194.916Z" fill="#56E3ED"/>
<path d="M277.47 225.689L272.211 237.216L260.685 242.475L272.211 247.735L277.47 259.261L282.73 247.735L294.256 242.475L282.73 237.216L277.47 225.689Z" fill="#56E3ED"/>
<path d="M264.657 206.778L248.823 190.943C247.704 189.88 246.305 189.32 244.85 189.32C243.395 189.32 241.997 189.88 240.878 190.943L178.379 253.442C176.197 255.624 176.197 259.149 178.379 261.331L194.213 277.166C195.332 278.285 196.731 278.844 198.186 278.844C199.641 278.844 201.04 278.285 202.159 277.222L264.657 214.723C266.84 212.541 266.84 208.96 264.657 206.778ZM244.85 202.861L252.74 210.75L246.193 217.297L238.304 209.407L244.85 202.861ZM198.186 265.36L190.297 257.47L230.415 217.297L238.304 225.186L198.186 265.36Z" fill="#56E3ED"/>
<defs>
<filter id="filter0_f_566_3154" x="0.137199" y="0.730949" width="470.726" height="470.726" filterUnits="userSpaceOnUse" color-interpolation-filters="sRGB">
<feFlood flood-opacity="0" result="BackgroundImageFix"/>
<feBlend mode="normal" in="SourceGraphic" in2="BackgroundImageFix" result="shape"/>
<feGaussianBlur stdDeviation="59.0252" result="effect1_foregroundBlur_566_3154"/>
</filter>
</defs>
</svg>
