<svg width="19" height="18" viewBox="0 0 19 18" fill="none" xmlns="http://www.w3.org/2000/svg">
<path d="M7.49245 9.83335C7.95078 9.83335 8.32578 10.2084 8.32578 10.6667C8.32578 11.125 7.95078 11.5 7.49245 11.5C7.03412 11.5 6.65911 11.125 6.65911 10.6667C6.65911 10.2084 7.03412 9.83335 7.49245 9.83335ZM7.49245 8.16669C6.10912 8.16669 4.99245 9.28335 4.99245 10.6667C4.99245 12.05 6.10912 13.1667 7.49245 13.1667C8.87578 13.1667 9.99245 12.05 9.99245 10.6667C9.99245 9.28335 8.87578 8.16669 7.49245 8.16669ZM14.5758 6.50002L15.4841 4.49169L17.4924 3.58335L15.4841 2.67502L14.5758 0.666687L13.6674 2.67502L11.6591 3.58335L13.6674 4.49169L14.5758 6.50002ZM16.8924 9.60002L16.2424 8.16669L15.5924 9.60002L14.1591 10.25L15.5924 10.9L16.2424 12.3334L16.8924 10.9L18.3258 10.25L16.8924 9.60002ZM12.7008 10.6667C12.7008 10.5667 12.7008 10.4584 12.6924 10.3584L14.3091 9.13335L12.2258 5.52502L10.3591 6.30835C10.1924 6.20002 10.0091 6.09169 9.82578 6.00002L9.57578 4.00002H5.40911L5.15911 6.00835C4.97578 6.10002 4.80078 6.20835 4.62578 6.31669L2.75911 5.52502L0.675781 9.13335L2.29245 10.3584C2.28411 10.4584 2.28411 10.5667 2.28411 10.6667C2.28411 10.7667 2.28411 10.875 2.29245 10.975L0.675781 12.2L2.75911 15.8084L4.62578 15.025C4.79245 15.1334 4.97578 15.2417 5.15911 15.3334L5.40911 17.3334H9.57578L9.82578 15.325C10.0091 15.2334 10.1841 15.1334 10.3591 15.0167L12.2258 15.8L14.3091 12.1917L12.6924 10.9667C12.7008 10.875 12.7008 10.7667 12.7008 10.6667ZM11.5174 13.7L10.0758 13.0917C9.60912 13.5917 8.99245 13.9584 8.30078 14.1167L8.10078 15.6667H6.88412L6.69245 14.1167C6.00078 13.9584 5.38411 13.5917 4.91745 13.0917L3.47578 13.7L2.86745 12.6417L4.10911 11.7C4.00911 11.375 3.95911 11.0334 3.95911 10.675C3.95911 10.3167 4.00911 9.97502 4.10911 9.65002L2.86745 8.70835L3.47578 7.65002L4.91745 8.25835C5.38411 7.75835 6.00078 7.39169 6.69245 7.23335L6.88412 5.66669H8.10912L8.30078 7.21669C8.99245 7.37502 9.60912 7.74169 10.0758 8.24169L11.5174 7.63335L12.1258 8.69169L10.8841 9.63335C10.9841 9.95835 11.0341 10.3 11.0341 10.6584C11.0341 11.0167 10.9841 11.3584 10.8841 11.6834L12.1258 12.625L11.5174 13.7Z" fill="#56E3ED"/>
</svg>
